# xmcd CD database file
#
# Track frame offsets:
#	150
#	33972
#	73287
#	110145
#	146534
#	174247
#	213478
#	247798
#
# Disc length: 3749 seconds
#
# Revision: 0
# Processed by: cddbd v1.5.2PL0 Copyright (c) Steve Scherf et al.
# Submitted via: jetAudio 7
#
DISCID=700ea308
DTITLE=Various Artist - 达摩配乐
DYEAR=1900
DGENRE=Classical
TTITLE0=梵唱大悲咒
TTITLE1=梵唱药师心咒
TTITLE2=梵唱观音心咒
TTITLE3=般若波罗蜜多心经
TTITLE4=八十四句梵唱大悲咒
TTITLE5=一声佛号一声心
TTITLE6=即心念佛
TTITLE7=阿弥陀佛圣号
EXTD=
EXTT0=
EXTT1=
EXTT2=
EXTT3=
EXTT4=
EXTT5=
EXTT6=
EXTT7=
PLAYORDER=
